<?xml version="1.0" standalone="no"?>
<!DOCTYPE svg PUBLIC "-//W3C//DTD SVG 20010904//EN"
 "http://www.w3.org/TR/2001/REC-SVG-20010904/DTD/svg10.dtd">
<svg version="1.0" xmlns="http://www.w3.org/2000/svg"
 width="600.000000pt" height="600.000000pt" viewBox="0 0 600.000000 600.000000"
 preserveAspectRatio="xMidYMid meet">
<metadata>
Created by potrace 1.14, written by Peter Selinger 2001-2017
</metadata>
<g transform="translate(0.000000,600.000000) scale(0.100000,-0.100000)"
fill="#000000" stroke="none">
<path d="M2135 5173 c-21 -20 -13 -68 16 -99 11 -12 66 -55 122 -95 124 -90
170 -136 183 -179 5 -18 15 -35 23 -38 17 -6 7 46 -20 104 -39 83 -258 324
-294 324 -8 0 -21 -7 -30 -17z"/>
<path d="M2450 4494 c-11 -12 -29 -14 -105 -8 -87 6 -94 5 -149 -22 -68 -33
-137 -106 -154 -162 -16 -53 -15 -145 3 -212 18 -68 18 -70 2 -70 -8 0 -22 -9
-32 -20 -25 -28 -12 -65 36 -100 89 -64 221 -90 454 -90 152 1 194 8 249 47
39 28 114 125 115 150 2 27 43 25 84 -4 23 -16 56 -35 73 -42 49 -19 76 -49
68 -74 -3 -11 -31 -53 -60 -93 -50 -67 -76 -94 -119 -119 -11 -7 -14 -16 -9
-29 10 -26 53 -16 149 36 68 36 85 51 111 95 53 89 51 172 -4 190 -9 3 -63 27
-119 55 l-102 49 -51 104 c-101 208 -239 277 -352 176 -22 -19 -38 -51 -58
-112 -23 -74 -30 -84 -50 -84 -61 0 -48 167 21 265 33 48 32 115 -1 74z"/>
<path d="M4440 4374 c-19 -2 -69 -8 -110 -13 -248 -33 -491 -63 -570 -71 -130
-14 -220 -30 -379 -71 -99 -25 -176 -39 -218 -39 -51 0 -67 -4 -85 -22 l-21
-21 27 -24 c23 -20 38 -23 99 -23 77 1 82 2 288 48 74 17 182 36 240 41 57 6
129 15 159 20 30 5 107 19 170 29 184 32 335 47 377 36 31 -7 38 -13 38 -34 0
-22 -16 -33 -142 -96 -146 -73 -240 -117 -353 -164 -36 -15 -108 -48 -160 -73
-52 -24 -124 -56 -160 -70 -141 -56 -331 -138 -442 -191 -64 -31 -156 -70
-204 -87 -47 -17 -110 -41 -138 -54 -115 -54 -160 -67 -232 -67 -81 0 -193 33
-281 83 -59 34 -66 43 -115 139 -38 74 -75 98 -105 67 -15 -15 -16 -23 -5 -63
7 -26 28 -70 47 -99 38 -56 46 -109 19 -119 -22 -9 -83 -7 -124 3 -75 19 -237
71 -275 88 -86 38 -304 177 -309 196 -7 29 15 67 43 73 14 3 44 10 66 15 156
40 160 41 195 30 20 -6 57 -25 84 -42 27 -18 51 -28 56 -23 5 5 -9 45 -33 94
-39 80 -41 90 -41 175 0 79 4 100 32 167 32 78 33 102 5 112 -58 23 -153 -137
-153 -257 0 -85 -9 -106 -49 -116 -20 -5 -43 -9 -51 -9 -8 0 -65 -5 -126 -10
-116 -10 -165 -27 -185 -63 -19 -36 -22 -187 -26 -1259 -4 -773 -2 -1055 7
-1084 14 -46 67 -124 124 -184 36 -38 235 -182 251 -182 3 0 33 -18 67 -41 62
-42 195 -108 353 -174 50 -20 124 -53 165 -72 134 -62 216 -85 274 -78 87 11
153 37 238 93 50 33 75 49 313 197 213 133 501 318 622 400 117 79 287 198
293 205 6 7 233 162 345 236 44 29 91 61 105 72 14 11 54 39 91 63 120 81 187
141 198 179 6 19 11 100 11 180 0 80 4 162 9 182 11 45 -8 78 -44 78 -22 0
-180 -74 -315 -147 -71 -39 -218 -117 -345 -183 -236 -124 -332 -175 -360
-191 -16 -10 -46 -26 -65 -36 -19 -10 -91 -52 -160 -93 -69 -42 -165 -98 -215
-125 -49 -27 -142 -81 -206 -120 -64 -40 -141 -83 -171 -97 -102 -47 -166 -94
-189 -140 -20 -40 -22 -60 -27 -321 -6 -323 -5 -319 -88 -319 -90 0 -280 67
-563 199 -111 52 -241 127 -406 236 -173 114 -183 124 -211 224 -36 124 -53
1036 -31 1569 20 483 8 473 387 314 107 -45 222 -88 255 -95 33 -7 96 -22 140
-33 144 -38 253 -47 376 -34 156 18 232 45 545 198 310 151 386 187 554 264
63 28 128 58 144 66 16 8 33 14 37 14 4 0 45 17 91 38 46 21 106 47 133 57 28
10 55 22 60 25 6 4 62 29 125 55 63 26 171 71 240 100 69 29 142 59 163 66 53
19 107 66 107 93 0 28 -30 56 -94 90 -48 26 -80 29 -186 20z"/>
<path d="M4590 4041 c-30 -10 -111 -48 -180 -85 -69 -37 -426 -217 -795 -401
-679 -339 -876 -442 -930 -488 l-30 -25 0 -210 c0 -196 1 -211 20 -232 34 -38
90 -24 250 62 195 104 430 226 845 435 195 99 405 206 465 238 61 31 185 96
277 142 104 53 177 96 193 115 24 29 25 33 24 186 0 183 -9 250 -35 269 -23
17 -37 16 -104 -6z"/>
<path d="M4155 3105 c-598 -301 -719 -363 -795 -405 -30 -17 -98 -53 -150 -81
-52 -27 -149 -78 -215 -114 -66 -36 -156 -84 -200 -105 -137 -68 -137 -68
-147 -201 -7 -107 -4 -272 8 -347 8 -55 40 -61 111 -22 32 18 96 54 143 80 47
26 119 66 160 90 128 73 357 196 610 330 91 47 181 96 200 107 54 30 397 222
470 262 74 41 78 43 221 109 86 40 112 57 133 88 26 39 26 39 26 241 0 170 -2
204 -16 217 -8 9 -21 16 -27 15 -7 -1 -246 -119 -532 -264z"/>
</g>
</svg>
